HIERARCHY
ROOT Hips
{
	OFFSET 0.000000 0.000000 0.000000
	CHANNELS 6 Xposition Yposition Zposition Zrotation Yrotation Xrotation 
	JOINT LHipJoint
	{
		OFFSET 0.000000 0.000000 0.000000
		CHANNELS 3 Zrotation Yrotation Xrotation
		JOINT LeftUpLeg
		{
			OFFSET 1.363060 -1.794630 0.839290
			CHANNELS 3 Zrotation Yrotation Xrotation
			JOINT LeftLeg
			{
				OFFSET 2.448110 -6.726130 0.000000
				CHANNELS 3 Zrotation Yrotation Xrotation
				JOINT LeftFoot
				{
					OFFSET 2.562200 -7.039590 0.000000
					CHANNELS 3 Zrotation Yrotation Xrotation
					JOINT LeftToeBase
					{
						OFFSET 0.157640 -0.433110 2.322550
						CHANNELS 3 Zrotation Yrotation Xrotation
						End Site
						{
							OFFSET 0.000000 0.000000 0.000000
						}
					}
				}
			}
		}
	}
	JOINT RHipJoint
	{
		OFFSET 0.000000 0.000000 0.000000
		CHANNELS 3 Zrotation Yrotation Xrotation
		JOINT RightUpLeg
		{
			OFFSET -1.305520 -1.794630 0.839290
			CHANNELS 3 Zrotation Yrotation Xrotation
			JOINT RightLeg
			{
				OFFSET -2.542530 -6.985550 0.000000
				CHANNELS 3 Zrotation Yrotation Xrotation
				JOINT RightFoot
				{
					OFFSET -2.568260 -7.056230 0.000000
					CHANNELS 3 Zrotation Yrotation Xrotation
					JOINT RightToeBase
					{
						OFFSET -0.164730 -0.452590 2.363150
						CHANNELS 3 Zrotation Yrotation Xrotation
						End Site
						{
							OFFSET 0.000000 0.000000 0.000000
						}
					}
				}
			}
		}
	}
}
MOTION
Frames: 19
Frame Time: 0.008333
1.956631 17.396509 0.902518 2.110165 -80.265745 9.512541 -10.991974 1.789545 1.842984 -5.800033 12.855776 -19.166951 -2.524784 -1.148008 -1.393614 0.438976 4.923112 7.357800 1.557800 -0.000000 -43.876600 9.862145 -1.734675 0.949518 5.767936 -11.460622 -17.218001 1.841378 0.641439 6.640298 -2.388184 -13.723193 2.373130 -3.543300 0.000000 -56.895800
1.955685 17.393411 0.864836 2.341109 -80.193477 9.607851 -10.971100 1.740162 1.846550 -5.820684 12.827730 -19.761871 -2.541342 -1.138526 -1.001998 0.440681 4.897720 7.277030 1.548300 0.000000 -44.136700 9.844424 -1.711743 0.991616 5.933595 -11.272195 -17.964285 1.857307 0.590846 7.362738 -2.398186 -13.586988 2.007221 -3.429600 -0.000000 -56.420000
1.954987 17.390038 0.825891 2.669275 -80.287285 9.605815 -10.954860 1.685898 1.833202 -5.832998 12.842187 -20.320023 -2.552822 -1.129139 -0.599405 0.453936 4.968738 7.174762 1.560800 -0.000000 -44.385000 9.823963 -1.693393 1.050795 6.075754 -10.999499 -18.709859 1.875942 0.539920 8.038170 -2.391693 -13.369998 1.669877 -3.305900 0.000000 -55.978201
1.953824 17.386469 0.786068 3.107902 -80.576653 9.498163 -10.944910 1.629163 1.802302 -5.843168 12.932769 -20.842931 -2.561760 -1.121364 -0.200607 0.477891 5.130173 7.059358 1.594300 -0.000000 -44.618300 9.799356 -1.683425 1.138834 6.194789 -10.617851 -19.453353 1.897144 0.492217 8.643003 -2.368381 -13.075241 1.370669 -3.177100 -0.000000 -55.580700
1.951878 17.382847 0.745863 3.667004 -81.090052 9.271698 -10.943400 1.572383 1.750508 -5.857696 13.143745 -21.330435 -2.571317 -1.115763 0.180286 0.510628 5.365160 6.938054 1.644500 0.000000 -44.831500 9.768643 -1.684677 1.265182 6.291839 -10.104168 -20.186272 1.920634 0.451364 9.153885 -2.327663 -12.705859 1.120748 -3.047700 0.000000 -55.240700
1.948014 17.379245 0.705770 4.416500 -81.857376 8.866838 -10.950796 1.521125 1.679544 -5.892452 13.512331 -21.791052 -2.585972 -1.114011 0.522772 0.550873 5.663202 6.818262 1.709400 0.000000 -45.013100 9.731164 -1.698871 1.440779 6.365554 -9.445050 -20.921768 1.947329 0.420788 9.561721 -2.266737 -12.251252 0.926294 -2.918000 0.000000 -54.976000
1.942371 17.375775 0.666546 5.387205 -82.901728 8.238916 -10.970005 1.477903 1.581184 -5.946163 14.093416 -22.217378 -2.608887 -1.113931 0.818586 0.595344 5.991175 6.700270 1.779400 0.000000 -45.155100 9.683922 -1.725840 1.665931 6.422536 -8.628764 -21.632499 1.977766 0.404184 9.842364 -2.183672 -11.712706 0.803661 -2.791400 -0.000001 -54.805500
1.934163 17.372449 0.628813 6.758652 -84.251342 7.212433 -11.000418 1.450274 1.456542 -6.025759 14.919575 -22.614586 -2.643686 -1.114214 1.053393 0.642922 6.333468 6.583880 1.849899 -0.000000 -45.243600 9.626531 -1.762115 1.942353 6.467274 -7.653467 -22.319348 2.013955 0.405179 9.991105 -2.074085 -11.076586 0.762859 -2.666100 0.000000 -54.749100
1.923122 17.369325 0.593190 9.007513 -85.950038 5.305564 -11.037873 1.451554 1.308450 -6.126848 16.015837 -22.980459 -2.691860 -1.109737 1.215715 0.694555 6.680324 6.464900 1.916401 0.000000 -45.267100 9.562053 -1.795265 2.263594 6.508810 -6.521489 -22.969545 2.058366 0.428968 10.005077 -1.931973 -10.327356 0.817149 -2.539800 0.000000 -54.825300
1.909082 17.366417 0.560254 14.391278 -88.159579 0.251935 -11.045507 1.533942 1.157656 -6.223055 17.405922 -23.315687 -2.751964 -1.083056 1.287845 0.759908 7.045554 6.330280 1.976501 -0.000000 -45.216300 9.526436 -1.772064 2.612250 6.575534 -5.223026 -23.561909 2.113458 0.491479 9.897423 -1.743917 -9.434919 0.986229 -2.407900 0.000000 -55.048500
1.891966 17.363719 0.530406 -103.908440 -87.982786 118.898689 -9.524279 1.906522 0.939468 -5.628678 19.143001 -23.710747 -2.851808 -1.084614 1.360288 0.812977 7.352569 6.159288 2.030600 0.000000 -45.087600 10.950717 -1.392964 3.108504 7.394348 -3.641025 -24.048987 2.166645 0.514750 9.577595 -1.538384 -8.505686 1.312265 -2.264500 -0.000000 -55.427100
1.871950 17.361208 0.503901 174.644773 -88.879438 -159.295073 -11.054361 1.117573 0.478096 -6.421751 20.551879 -23.758414 -2.938112 -1.257620 1.397247 0.752409 7.506187 6.161950 2.082200 -0.000000 -44.883399 9.417295 -2.315701 3.573625 6.704189 -2.628340 -24.703606 2.280675 0.420141 9.065643 -1.407956 -7.546994 1.527128 -2.102000 -0.000000 -55.960900
1.855075 17.359159 0.472994 179.357362 -85.156393 -163.894866 -11.201134 1.185148 -0.054386 -6.796141 23.633515 -23.485505 -3.113331 -1.232466 0.984017 0.772028 7.674457 6.211093 2.088500 -0.000000 -44.786200 9.255875 -2.350412 4.137644 6.267899 -0.224714 -25.075263 2.290671 0.462551 8.847126 -1.139725 -6.283883 1.944363 -1.900800 -0.000000 -56.662800
1.831161 17.356815 0.453463 -177.807315 -82.135373 -166.479288 -11.301565 1.265457 -0.297512 -6.778540 25.629105 -23.474123 -3.190892 -1.202192 0.780897 0.849919 8.152875 6.066261 2.155800 -0.000001 -44.477400 9.110740 -2.368470 4.534595 6.358316 1.287282 -25.377220 2.426383 0.554874 8.272210 -0.819463 -4.844606 2.536811 -1.668500 0.000000 -57.478200
1.806546 17.354523 0.437469 -175.930560 -79.003467 -168.149569 -11.374436 1.343728 -0.547978 -6.624306 27.612301 -23.299436 -3.252878 -1.170165 0.536280 0.938816 8.727925 5.920482 2.241499 0.000000 -44.156700 8.992673 -2.372952 4.918862 6.497946 2.799795 -25.551081 2.584118 0.643654 7.609156 -0.480340 -3.298789 3.229501 -1.395100 0.000000 -58.401100
1.782272 17.352156 0.424564 -174.548296 -75.778982 -169.379579 -11.433161 1.423069 -0.793403 -6.317171 29.509042 -22.932528 -3.291227 -1.134096 0.266366 1.043508 9.433132 5.777473 2.353800 0.000000 -43.847200 8.893658 -2.356269 5.279548 6.676507 4.284062 -25.594916 2.760205 0.727395 6.893308 -0.129225 -1.652126 4.002056 -1.072900 -0.000000 -59.398000
1.758859 17.349436 0.414536 -173.455300 -72.491057 -170.369665 -11.485596 1.502675 -1.024207 -5.843950 31.264389 -22.374413 -3.301801 -1.092952 0.005132 1.165618 10.276925 5.631413 2.494100 -0.000000 -43.566500 8.807712 -2.316788 5.617682 6.891798 5.739491 -25.516099 2.949463 0.806113 6.141191 0.221862 0.060084 4.842835 -0.703300 -0.000000 -60.446500
1.737832 17.346388 0.406960 -172.595887 -69.195323 -171.192971 -11.537235 1.578261 -1.241287 -5.196416 32.831071 -21.602749 -3.281534 -1.047413 -0.218267 1.303654 11.256236 5.490231 2.663700 -0.000000 -43.340200 8.733987 -2.256907 5.922552 7.136632 7.129271 -25.306940 3.145118 0.875824 5.377504 0.563113 1.823069 5.724865 -0.282901 0.000000 -61.511600
1.719561 17.342807 0.401420 -171.919554 -65.931984 -171.893679 -11.591814 1.649188 -1.440704 -4.391023 34.187079 -20.647492 -3.233252 -0.997425 -0.362676 1.453987 12.342108 5.349722 2.855901 0.000000 -43.176300 8.668672 -2.181188 6.195916 7.407439 8.442406 -24.984718 3.341192 0.936790 4.616696 0.884487 3.605014 6.629260 0.183400 0.000000 -62.572300
